<?xml version="1.0" standalone="no"?><!DOCTYPE svg PUBLIC "-//W3C//DTD SVG 1.1//EN" "http://www.w3.org/Graphics/SVG/1.1/DTD/svg11.dtd"><svg t="1619412480600" class="icon" viewBox="0 0 1024 1024" version="1.1" xmlns="http://www.w3.org/2000/svg" p-id="2008" xmlns:xlink="http://www.w3.org/1999/xlink" width="16" height="16"><path d="M505.6 305.066667m-49.066667 0a49.066667 49.066667 0 1 0 98.133334 0 49.066667 49.066667 0 1 0-98.133334 0Z"></path><path d="M558.933333 516.266667v-29.866667c0-8.533333-2.133333-17.066667-6.4-27.733333-6.4-12.8-17.066667-23.466667-29.866666-29.866667-8.533333-4.266667-17.066667-6.4-27.733334-6.4H426.666667v51.2h64c6.4 0 6.4 2.133333 8.533333 2.133333 2.133333 2.133333 6.4 4.266667 6.4 6.4 0 0 0 2.133333 2.133333 8.533334V699.733333H426.666667v51.2h213.333333v-51.2h-81.066667v-183.466666z"></path><path d="M512 85.333333C277.333333 85.333333 85.333333 277.333333 85.333333 512s192 426.666667 426.666667 426.666667 426.666667-192 426.666667-426.666667S746.666667 85.333333 512 85.333333z m0 802.133334c-206.933333 0-375.466667-168.533333-375.466667-375.466667S305.066667 136.533333 512 136.533333 887.466667 305.066667 887.466667 512 718.933333 887.466667 512 887.466667z"></path></svg>