<?xml version="1.0" standalone="no"?><!DOCTYPE svg PUBLIC "-//W3C//DTD SVG 1.1//EN" "http://www.w3.org/Graphics/SVG/1.1/DTD/svg11.dtd"><svg t="1615390389259" class="icon" viewBox="0 0 1024 1024" version="1.1" xmlns="http://www.w3.org/2000/svg" p-id="30358" xmlns:xlink="http://www.w3.org/1999/xlink" width="16" height="16"><defs><style type="text/css"></style></defs><path d="M617.469 821.375l0 140.625 168.75-168.75-140.625 0c-15.525 0-28.125 12.6-28.125 28.125zM842.469 62l-587.109 0c-23.287 0-42.188 18.886-42.188 42.188l587.109 0c15.539 0 28.125 12.586 28.125 28.125l0 586.814c23.203 0 41.991-18.731 42.159-41.892l0.028 0 0-587.109c0-15.539-12.586-28.125-28.125-28.125zM299.853 614.094c0.492 0.759 4.781 3.572 12.094 3.572 5.077 0 10.434-1.35 15.483-3.881 4.697-2.362 13.767-8.648 29.278-25.284-8.494 2.222-16.566 4.5-24.075 6.792-26.269 8.058-32.541 16.875-32.78 18.802zM479.052 468.716l-0.464 0.816-0.239-0.45c-15.047 24.623-32.597 50.934-49.823 74.756l1.266-0.267-0.717 0.9c32.048-5.33 63.548-8.887 91.645-10.364l-0.717-0.872 0.998 0c-15.413-20.784-29.939-43.144-41.948-64.519zM488.656 388.658c10.434-40.936-1.28-64.8-6.412-66.783-0.802 0.97-8.972 11.588-10.238 44.662-0.295 7.833 1.294 20.7 8.845 40.795 5.667-11.545 7.355-16.889 7.805-18.675zM626.244 575.689c-5.386-3.867-17.494-9.675-43.481-12.516 6.244 6.342 11.981 11.489 16.875 15.159 22.416 16.72 34.059 18.534 38.025 18.534 1.448 0 2.194-0.239 2.377-0.337 0.548-1.673-1.659-12.122-13.795-20.841zM758.094 146.375l-576.563 0c-15.525 0-28.125 12.586-28.125 28.125l0 759.375c0 15.525 12.6 28.125 28.125 28.125l407.813 0 0-168.75c0-15.525 12.6-28.125 28.125-28.125l168.75 0 0-590.625c0-15.539-12.6-28.125-28.125-28.125zM666.406 605.53c-3.909 12.178-14.667 19.448-28.744 19.448-14.948 0-33.413-8.114-54.858-24.117-13.57-10.139-28.322-26.142-39.487-39.333-40.064 0.45-90.703 6.356-140.611 16.411-26.128 32.695-47.18 53.198-62.62 60.975-8.958 4.5-18.689 6.891-28.139 6.891-21.066 0-37.477-11.405-39.923-27.731-1.8-12.009 2.616-34.411 52.369-49.655 18.38-5.625 39.923-11.123 62.578-15.933 25.833-33.272 55.125-76.669 76.697-113.597-13.838-29.77-20.489-54.436-19.758-73.392 2.475-64.659 28.012-71.634 38.897-71.634 8.986 0 17.578 4.683 24.188 13.191 11.461 14.752 19.828 45.787 8.916 88.594-2.362 9.295-9.225 24.159-20.433 44.269 15.567 30.389 37.884 64.519 61.172 93.558 40.247 0.773 69.173 7.298 86.02 19.406 19.463 13.964 29.222 35.62 23.738 52.65z" p-id="30359"></path></svg>