<?xml version="1.0" standalone="no"?><!DOCTYPE svg PUBLIC "-//W3C//DTD SVG 1.1//EN" "http://www.w3.org/Graphics/SVG/1.1/DTD/svg11.dtd"><svg t="1616724338072" class="icon" viewBox="0 0 1024 1024" version="1.1" xmlns="http://www.w3.org/2000/svg" p-id="4014" xmlns:xlink="http://www.w3.org/1999/xlink" width="16" height="16"><defs><style type="text/css"></style></defs><path d="M676.352 3.072v197.632c0 21.504 14.848 78.336 82.432 78.336H931.84L676.352 3.072zM452.608 410.112h19.456v19.456h-19.456zM551.936 410.112h19.456v19.456h-19.456z" p-id="4015"></path><path d="M750.592 305.152c-80.896 0-98.304-68.096-98.304-93.184V3.584H153.6c-33.792 0-61.44 27.648-61.44 61.44V962.56c0 33.792 27.648 61.44 61.44 61.44h716.8c33.792 0 61.44-27.648 61.44-61.44V305.152h-181.248zM373.76 656.896c0 15.872-13.824 29.696-29.696 29.696-15.872 0-29.696-13.824-29.696-29.696v-138.24c0-15.872 13.824-29.696 29.696-29.696 15.872 0 29.696 13.824 29.696 29.696v138.24z m255.488 28.672c0 10.752-7.168 19.456-19.456 19.456h-19.456v68.608c0 15.872-13.824 29.696-29.696 29.696s-29.696-13.824-29.696-29.696v-68.608H491.52V773.12c0 15.872-13.824 29.696-29.696 29.696s-29.696-13.824-29.696-29.696v-68.608h-19.456c-10.752 0-19.456-7.168-19.456-19.456V488.96h235.52v196.608zM394.752 468.992c0-38.912 19.456-73.216 46.592-94.208l-26.112-26.112c-2.048-3.584-2.048-12.288 0-15.872 3.584-2.048 12.288-2.048 15.872 0l28.16 29.696c15.872-8.704 33.792-12.288 53.248-12.288s37.376 4.096 51.2 13.312l29.696-29.696c3.584-3.584 10.24-3.072 13.824 0 3.584 3.584 3.584 10.24 0 13.824l-26.112 26.112c29.696 20.992 50.176 56.32 50.688 95.232H394.752z m314.88 187.904c0 15.872-13.824 29.696-29.696 29.696-15.872 0-29.696-13.824-29.696-29.696v-138.24c0-15.872 13.824-29.696 29.696-29.696 15.872 0 29.184 13.824 29.696 29.696v138.24z" p-id="4016"></path></svg>