<?xml version="1.0" standalone="no"?><!DOCTYPE svg PUBLIC "-//W3C//DTD SVG 1.1//EN" "http://www.w3.org/Graphics/SVG/1.1/DTD/svg11.dtd"><svg t="1614869462502" class="icon" viewBox="0 0 1024 1024" version="1.1" xmlns="http://www.w3.org/2000/svg" p-id="18452" width="128" height="128" xmlns:xlink="http://www.w3.org/1999/xlink"><defs><style type="text/css"></style></defs><path d="M927.384 96.616H892.77v69.23H788.923V96.615H235.077v69.231H131.23V96.615H96.616C77.543 96.615 62 112.158 62 131.23v761.54c0 19.072 15.543 34.614 34.616 34.614h34.615V892.77h103.846v34.615h553.846V892.77H892.77v34.615h34.614c19.074 0 34.616-15.542 34.616-34.615V131.23c0-19.072-15.542-34.614-34.616-34.614zM235.077 788.923H131.23V685.077h103.847v103.846z m0-207.692H131.23V477.384h103.847v103.847z m0-207.692H131.23V269.693h103.847v103.846z m435.739 161.168L445.71 666.004c-3.668 1.835-7.684 2.7-11.665 2.7-4.777 0-9.415-1.28-13.639-3.773-7.614-4.604-12.253-12.842-12.253-21.635V380.74c0-8.828 4.639-17.066 12.253-21.67 7.686-4.638 17.274-5.053 25.27-1.038L670.78 489.293c8.758 4.326 14.296 13.084 14.296 22.707s-5.538 18.38-14.261 22.707z m221.953 254.215H788.923V685.078H892.77v103.846z m0-207.691H788.923V477.384H892.77v103.847z m0-207.692H788.923V269.693H892.77v103.846z" p-id="18453"></path></svg>