<?xml version="1.0" standalone="no"?><!DOCTYPE svg PUBLIC "-//W3C//DTD SVG 1.1//EN" "http://www.w3.org/Graphics/SVG/1.1/DTD/svg11.dtd"><svg t="1619413269111" class="icon" viewBox="0 0 1024 1024" version="1.1" xmlns="http://www.w3.org/2000/svg" p-id="2755" xmlns:xlink="http://www.w3.org/1999/xlink" width="16" height="16"><path d="M486.4 497.066667h-198.4v51.2H512c6.4 0 12.8-2.133333 17.066667-8.533334 4.266667-4.266667 8.533333-10.666667 8.533333-17.066666V234.666667h-51.2v262.4z"></path><path d="M512 85.333333C277.333333 85.333333 85.333333 277.333333 85.333333 512s192 426.666667 426.666667 426.666667 426.666667-192 426.666667-426.666667S746.666667 85.333333 512 85.333333z m0 802.133334c-206.933333 0-375.466667-168.533333-375.466667-375.466667S305.066667 136.533333 512 136.533333 887.466667 305.066667 887.466667 512 718.933333 887.466667 512 887.466667z"></path></svg>