<?xml version="1.0" standalone="no"?><!DOCTYPE svg PUBLIC "-//W3C//DTD SVG 1.1//EN" "http://www.w3.org/Graphics/SVG/1.1/DTD/svg11.dtd"><svg t="1618663243592" class="icon" viewBox="0 0 1024 1024" version="1.1" xmlns="http://www.w3.org/2000/svg" p-id="7401" xmlns:xlink="http://www.w3.org/1999/xlink" width="16" height="16"><defs><style type="text/css"></style></defs><path d="M317.453379 60.449935C256.760185 83.194679 203.851289 114.331868 158.848319 153.861504c-45.124599 39.529635-80.640456 85.748901-106.547571 138.657798-25.907115 52.908897-38.921487 109.466683-38.921487 169.794987 0 34.42119 4.378667 67.626084 13.136002 99.736311 8.757335 32.110227 21.285188 62.760898 37.461931 91.952013 16.176743 29.191115 35.880746 56.314527 58.86875 81.248604s48.773489 47.192303 77.356455 66.653047v154.591282c0 36.610524 25.420596 50.841193 56.679416 31.866967l161.280912-97.911866c15.568595 2.554223 31.01556 4.500297 46.219266 5.838223 15.203706 1.337926 31.01556 1.946074 47.192303 1.946075 68.720751 0 133.427723-11.311557 194.120917-34.056301 60.693194-22.744744 113.480461-53.881934 158.60506-93.41157 45.124599-39.529635 80.640456-85.748901 106.547571-138.657797 25.907115-52.908897 38.921487-109.466683 38.921487-169.794988 0-60.328305-13.014372-116.886091-38.921487-169.794987s-61.422972-99.128162-106.547571-138.657798C819.175674 114.331868 766.266778 83.194679 705.695213 60.449935c-60.693194-22.744744-125.400166-34.056301-194.120917-34.056302-68.84238 0-133.549353 11.311557-194.120917 34.056302z m349.806866 557.550303h-311.371897c-8.392446 0-15.690224-3.040741-21.893337-9.243854s-9.243853-13.500891-9.243853-21.893336 3.040741-15.690224 9.243853-21.893337 13.500891-9.243853 21.893337-9.243853h311.371897c8.392446 0 15.690224 3.040741 21.893336 9.243853s9.243853 13.500891 9.243853 21.893337-3.040741 15.690224-9.243853 21.893336-13.500891 9.243853-21.893336 9.243854z m62.274379-186.823139H293.613968c-8.392446 0-15.690224-3.040741-21.893336-9.243853s-9.243853-13.500891-9.243853-21.893336 3.040741-15.690224 9.243853-21.893337 13.500891-9.243853 21.893336-9.243853h435.920656c8.392446 0 15.690224 3.040741 21.893337 9.243853s9.243853 13.500891 9.243853 21.893337-3.040741 15.690224-9.243853 21.893336-13.500891 9.243853-21.893337 9.243853z m0 0" fill="" p-id="7402"></path></svg>