<?xml version="1.0" standalone="no"?><!DOCTYPE svg PUBLIC "-//W3C//DTD SVG 1.1//EN" "http://www.w3.org/Graphics/SVG/1.1/DTD/svg11.dtd"><svg t="1616580675783" class="icon" viewBox="0 0 1024 1024" version="1.1" xmlns="http://www.w3.org/2000/svg" p-id="45081" xmlns:xlink="http://www.w3.org/1999/xlink" width="16" height="16"><defs><style type="text/css"></style></defs><path d="M729.088 219.136h155.136v79.36h-155.136z" p-id="45082"></path><path d="M995.328 772.608c-0.512-195.072-0.512-390.656 0-586.24 1.536-19.456-2.56-39.424-11.264-56.832-16.896-9.216-35.84-12.8-55.296-11.264H599.04V27.648h-65.536C365.056 58.368 196.096 87.552 27.648 117.76v788.48c167.424 30.208 335.36 58.88 503.296 89.6h68.608V896h342.016c18.432-0.512 46.08-1.536 50.176-25.088 4.608-32.256 6.144-65.536 3.584-98.304zM352.768 689.152c-20.992-46.592-39.424-93.696-55.296-142.336-14.848 45.568-36.352 89.6-53.76 134.144-24.064 0-48.64-1.536-72.704-2.56 28.16-57.344 55.808-114.688 84.992-171.008-25.088-57.856-52.224-115.2-77.824-173.568l72.704-4.096c16.384 44.544 34.304 88.064 48.128 133.12 15.36-48.64 37.376-93.184 55.808-139.776 25.088-2.048 50.176-3.584 75.264-4.608-29.696 61.952-59.392 123.904-89.088 185.344 30.208 63.488 61.44 125.952 91.648 189.44l-79.872-4.096z m608.768 171.52h-365.056v-67.584h88.576v-78.848h-88.576v-45.568h88.576v-78.336h-88.576v-45.056h88.576V466.944h-88.576v-45.568h88.576V343.552h-88.576v-45.568h88.576V219.648h-88.576V152.576h365.056v708.096z" p-id="45083"></path><path d="M729.088 342.016h155.136v79.36h-155.136zM729.088 715.264h155.136v79.36h-155.136zM729.088 590.848h155.136v79.36h-155.136zM729.088 466.432h155.136v79.36h-155.136z" p-id="45084"></path></svg>