<?xml version="1.0" standalone="no"?><!DOCTYPE svg PUBLIC "-//W3C//DTD SVG 1.1//EN" "http://www.w3.org/Graphics/SVG/1.1/DTD/svg11.dtd"><svg t="1624609625763" class="icon" viewBox="0 0 1024 1024" version="1.1" xmlns="http://www.w3.org/2000/svg" p-id="1782" xmlns:xlink="http://www.w3.org/1999/xlink" width="560" height="560"><defs><style type="text/css"></style></defs><path d="M658.285714 0l292.571429 292.571429v585.142857a146.285714 146.285714 0 0 1-146.285714 146.285714H219.428571a146.285714 146.285714 0 0 1-146.285714-146.285714V146.285714a146.285714 146.285714 0 0 1 146.285714-146.285714h438.857143z m-36.571428 73.142857H219.428571a73.142857 73.142857 0 0 0-73.142857 73.142857v731.428572a73.142857 73.142857 0 0 0 73.142857 73.142857h585.142858a73.142857 73.142857 0 0 0 73.142857-73.142857V329.142857h-146.285715a109.714286 109.714286 0 0 1-109.202285-99.181714L621.714286 219.428571V73.142857zM512 402.285714a219.428571 219.428571 0 1 1 0 438.857143 219.428571 219.428571 0 0 1 0-438.857143z m126.025143 145.115429l-200.338286 200.411428a146.285714 146.285714 0 0 0 200.411429-200.411428zM512 475.428571a146.285714 146.285714 0 0 0-126.025143 220.598858l200.338286-200.411429A145.554286 145.554286 0 0 0 512 475.428571z m182.857143-335.36V219.428571a36.571429 36.571429 0 0 0 29.988571 35.986286L731.428571 256h79.433143L694.857143 140.068571z" fill="#666666" p-id="1783"></path></svg>