<?xml version="1.0" standalone="no"?><!DOCTYPE svg PUBLIC "-//W3C//DTD SVG 1.1//EN" "http://www.w3.org/Graphics/SVG/1.1/DTD/svg11.dtd"><svg t="1622551066405" class="icon" viewBox="0 0 1024 1024" version="1.1" xmlns="http://www.w3.org/2000/svg" p-id="11666" xmlns:xlink="http://www.w3.org/1999/xlink" width="560" height="560"><defs><style type="text/css"></style></defs><path d="M766.72 711.68h-86.07232v-63.67232h86.07232a112.03584 112.03584 0 0 0 0-224.06656h-38.17472l-3.1488-28.31872C713.12896 285.184 622.08 201.91232 513.5872 201.91232S314.04544 285.184 301.77792 395.6224l-3.14368 28.3136H257.28a112.03584 112.03584 0 0 0 0 224.06656h88.74496V711.68H257.28a175.72352 175.72352 0 0 1-14.21312-350.83776C270.16192 232.1408 381.952 138.24 513.5872 138.24c131.71712 0 243.60448 94.03904 270.58688 222.89408A175.72864 175.72864 0 0 1 766.72 711.68z" fill="#ffffff" p-id="11667"></path><path d="M615.11168 698.96704l-71.40864 71.7312V409.3952H480.30208v361.30816l-71.41376-71.73632-44.8256 45.02528L512 892.61568l147.93728-148.62336z" fill="#ffffff" p-id="11668"></path></svg>