<?xml version="1.0" standalone="no"?><!DOCTYPE svg PUBLIC "-//W3C//DTD SVG 1.1//EN" "http://www.w3.org/Graphics/SVG/1.1/DTD/svg11.dtd"><svg t="1615390088330" class="icon" viewBox="0 0 1024 1024" version="1.1" xmlns="http://www.w3.org/2000/svg" p-id="15600" xmlns:xlink="http://www.w3.org/1999/xlink" width="16" height="16"><defs><style type="text/css"></style></defs><path d="M695.633 62.902v163.215c0 21.311 17.18 38.6 38.6 38.6h160.873L695.633 62.903z m38.599 241.648c-43.285-0.115-78.426-35.257-78.426-78.542V62.455H196.28c-38.16 0-69.172 30.903-69.172 69.172v752.935c0 38.152 30.903 69.17 69.172 69.17h629.322c38.153 0 69.172-30.902 69.172-69.17V304.435H734.232v0.115zM266.436 517.85c12.732 10.555 27.202 15.832 43.41 15.832 9.192 0 16.102-1.584 20.733-4.748 4.63-3.167 6.945-7.235 6.945-12.207 0-4.29-1.838-8.339-5.515-12.154-3.678-3.813-13.381-8.988-29.11-15.526-24.718-10.485-37.077-25.739-37.077-45.759 0-14.708 5.601-26.13 16.802-34.268 11.2-8.135 26.027-12.205 44.481-12.205 15.456 0 28.428 2.01 38.915 6.026v31.663c-10.622-7.217-23.05-10.827-37.28-10.827-8.309 0-14.948 1.516-19.917 4.545-4.971 3.03-7.457 7.098-7.457 12.205 0 4.086 1.702 7.848 5.107 11.286 3.404 3.439 11.813 8.087 25.229 13.942 15.729 6.741 26.538 13.858 32.428 21.348 5.89 7.491 8.835 16.41 8.835 26.76 0 15.185-5.38 26.76-16.138 34.726-10.76 7.967-26.046 11.95-45.86 11.95-18.114 0-32.958-2.927-44.534-8.784v-33.805z m337.875-118.38l-42.183 158.214h-37.485l-26.965-103.161c-1.43-5.583-2.283-11.405-2.553-17.465h-0.409c-0.68 7.082-1.634 12.905-2.86 17.465l-27.577 103.16h-38.915l-42.183-158.212h36.975l23.492 107.245c1.021 4.698 1.736 10.622 2.145 17.772h0.715c0.34-5.582 1.395-11.678 3.167-18.282l29.417-106.735h35.85l26.76 108.062c1.088 4.29 1.941 9.875 2.554 16.751h0.51a97.6 97.6 0 0 1 2.35-17.363l22.98-107.45h34.215z m110.515 27.578h-56.483v40.65h51.988v27.577h-51.988v62.407h-33.706V399.472h90.189v27.577z m137.204 370.52L654.455 916.038c-13.198 7.89-29.988-1.64-29.988-17.02v-236.94c0-15.383 16.79-24.833 29.988-17.022L852.03 763.522c12.81 7.729 12.81 26.393 0 34.048z" p-id="15601"></path></svg>