<?xml version="1.0" standalone="no"?><!DOCTYPE svg PUBLIC "-//W3C//DTD SVG 1.1//EN" "http://www.w3.org/Graphics/SVG/1.1/DTD/svg11.dtd"><svg t="1616576979377" class="icon" viewBox="0 0 1024 1024" version="1.1" xmlns="http://www.w3.org/2000/svg" p-id="6425" xmlns:xlink="http://www.w3.org/1999/xlink" width="16" height="16"><defs><style type="text/css"></style></defs><path d="M160 960l0-864 320 0 0 64-64 0 0 64 64 0 0 64-64 0 0 64 64 0 0 64-64 0 0 64 64 0 0 64 64 0 0-64-64 0 0-64 64 0 0-64-64 0 0-64 64 0 0-64-64 0 0-64 64 0 0-64 95.712 0 0 192.288 192.288 0 0 671.712-672 0zM544 576l-128 0 0 224 128 0 0-224zM512 766.016l-64 0 0-64 64 0 0 64zM672 96l7.84 0 152.16 152.16 0 5.856-160 0 0-158.016z" p-id="6426"></path></svg>