<?xml version="1.0" standalone="no"?><!DOCTYPE svg PUBLIC "-//W3C//DTD SVG 1.1//EN" "http://www.w3.org/Graphics/SVG/1.1/DTD/svg11.dtd"><svg t="1615390018619" class="icon" viewBox="0 0 1024 1024" version="1.1" xmlns="http://www.w3.org/2000/svg" p-id="13136" xmlns:xlink="http://www.w3.org/1999/xlink" width="16" height="16"><defs><style type="text/css"></style></defs><path d="M897.706667 720.213333c-3.413333-3.413333-10.24-3.413333-13.653334-3.413333l-170.666666 34.133333c-6.826667 0-13.653333 10.24-13.653334 17.066667v191.146667c-6.826667-3.413333-10.24-3.413333-17.066666-3.413334-30.72 0-51.2 13.653333-51.2 34.133334s20.48 34.133333 51.2 34.133333 51.2-13.653333 51.2-34.133333v-208.213334l136.533333-27.306666V921.6H853.333333c-30.72 0-51.2 13.653333-51.2 34.133333s20.48 34.133333 51.2 34.133334 51.2-13.653333 51.2-34.133334v-221.866666c0-3.413333-3.413333-10.24-6.826666-13.653334z" fill="" p-id="13137"></path><path d="M853.333333 0H368.64c-3.413333 0-3.413333 3.413333-6.826667 3.413333l-238.933333 238.933334s-3.413333 3.413333-3.413333 6.826666v655.36c0 10.24 6.826667 17.066667 17.066666 17.066667h529.066667v-153.6c0-23.893333 17.066667-44.373333 40.96-51.2l163.84-34.133333V17.066667c0-10.24-6.826667-17.066667-17.066667-17.066667zM358.4 58.026667v163.84c0 10.24-6.826667 17.066667-17.066667 17.066666H177.493333l180.906667-180.906666z m68.266667 573.44c0 10.24-6.826667 17.066667-17.066667 17.066666s-17.066667-6.826667-17.066667-17.066666v-215.04l-54.613333 85.333333c-6.826667 10.24-23.893333 10.24-27.306667 0l-54.613333-85.333333v215.04c0 10.24-6.826667 17.066667-17.066667 17.066666s-17.066667-6.826667-17.066666-17.066666v-273.066667c0-6.826667 3.413333-13.653333 13.653333-17.066667 6.826667-3.413333 13.653333 0 20.48 6.826667l71.68 112.64 71.68-112.64c3.413333-6.826667 10.24-10.24 20.48-6.826667 6.826667 3.413333 13.653333 10.24 13.653333 17.066667v273.066667z m68.266666 0c0 10.24-6.826667 17.066667-17.066666 17.066666s-17.066667-6.826667-17.066667-17.066666v-273.066667c0-10.24 6.826667-17.066667 17.066667-17.066667s17.066667 6.826667 17.066666 17.066667v273.066667z m204.8-68.266667c0 58.026667-54.613333 85.333333-112.64 85.333333H546.133333c-10.24 0-17.066667-6.826667-17.066666-17.066666v-273.066667c0-10.24 6.826667-17.066667 17.066666-17.066667h44.373334c58.026667 0 109.226667 64.853333 109.226666 119.466667v102.4z m68.266667 68.266667c0 10.24-6.826667 17.066667-17.066667 17.066666s-17.066667-6.826667-17.066666-17.066666v-273.066667c0-10.24 6.826667-17.066667 17.066666-17.066667s17.066667 6.826667 17.066667 17.066667v273.066667z" fill="" p-id="13138"></path><path d="M590.506667 375.466667h-27.306667v238.933333h27.306667c34.133333 0 78.506667-13.653333 78.506666-51.2v-102.4c-3.413333-40.96-44.373333-85.333333-78.506666-85.333333z" fill="" p-id="13139"></path></svg>