<?xml version="1.0" standalone="no"?><!DOCTYPE svg PUBLIC "-//W3C//DTD SVG 1.1//EN" "http://www.w3.org/Graphics/SVG/1.1/DTD/svg11.dtd"><svg t="1616579541075" class="icon" viewBox="0 0 1024 1024" version="1.1" xmlns="http://www.w3.org/2000/svg" p-id="20155" xmlns:xlink="http://www.w3.org/1999/xlink" width="16" height="16"><defs><style type="text/css"></style></defs><path d="M323.045554 755.060831c-12.174331 0-20.05926 1.07235-24.664059 2.144701v157.856285c4.636338 1.07235 12.174331 1.07235 18.95537 1.07235 49.391197 0.346937 81.593249-26.840299 81.593249-84.463363 0.378477-50.116611-28.985-76.609973-75.88456-76.609973zM882.181661 243.045061a19.649244 19.649244 0 0 0-4.730957-12.868204l-195.546247-223.364278-0.157699-0.126159a19.806942 19.806942 0 0 0-5.235593-4.100163 22.29858 22.29858 0 0 0-3.910925-1.640065l-1.07235-0.346937a19.964641 19.964641 0 0 0-4.573259-0.567715H186.352419C164.432316 0.03154 146.580836 17.88302 146.580836 39.803123V974.482644c0 21.951643 17.85148 39.771583 39.771583 39.771583h656.246897c21.951643 0 39.771583-17.85148 39.771584-39.771583V245.315921c0-0.756953-0.126159-1.482367-0.189239-2.23932zM416.844673 927.583084c-25.421012 21.100071-64.057166 31.129701-111.303662 31.129701-28.291126 0-48.318847-1.797764-61.912465-3.563988v-236.957895c20.05926-3.217051 46.174146-5.014815 73.739859-5.014816 45.795669 0 75.506083 8.231866 98.782394 25.767949 25.042535 18.608433 40.812394 48.318847 40.812394 90.929005 0 46.174146-16.842209 78.02926-40.08698 97.710044z m226.581329 28.638064h-150.696769v-241.215758h54.752949v195.420088h95.91228v45.827209z m182.89882 0h-150.696769v-241.215758h54.752949v195.420088h95.91228v45.827209zM186.352419 675.328426V39.771583h460.70065v203.494256c0 10.975822 8.8942 19.901562 19.901562 19.901562h175.644685l0.03154 412.161025H186.352419z m376.584224-224.18431c2.554717-1.009271 4.573259-2.996273 5.58253-5.361752s0.946192-5.204053-0.063079-7.537993a19.113069 19.113069 0 0 1 3.942465-21.036991l14.539809-14.53981a18.860751 18.860751 0 0 1 13.309761-5.61407h3.406289l3.910925 1.482367a9.619614 9.619614 0 0 0 13.246682-5.204053 18.797671 18.797671 0 0 1 16.337573-11.827394v-13.562079a3.595528 3.595528 0 0 0-2.23932-3.28013c-14.350571-5.61407-25.957187-16.968368-31.855114-31.192781s-5.740229-30.530446 0.473095-44.628699a3.595528 3.595528 0 0 0-0.725413-3.879386l-30.719685-30.688145c-1.703145-1.703145-2.933194-1.16697-3.910925-0.756953a56.92919 56.92919 0 0 1-75.78994-31.382018 3.500909 3.500909 0 0 0-3.248591-2.207781h-43.430191a3.563988 3.563988 0 0 0-3.28013 2.207781 56.83457 56.83457 0 0 1-75.821481 31.382018c-0.883112-0.346937-2.144701-0.946192-3.879385 0.756953l-30.719684 30.688145a3.532448 3.532448 0 0 0-0.693874 3.910925c6.181785 14.098254 6.339483 30.341208 0.473096 44.59716s-17.504543 25.578711-31.886655 31.192781a3.500909 3.500909 0 0 0-2.20778 3.28013v43.430191a3.469369 3.469369 0 0 0 2.20778 3.248591c14.382111 5.61407 25.957187 16.968368 31.886655 31.19278a57.086888 57.086888 0 0 1-0.504636 44.6287 3.595528 3.595528 0 0 0 0.725414 3.879385l30.719684 30.719685c1.734684 1.703145 2.933194 1.13543 3.910925 0.693874a56.771491 56.771491 0 0 1 44.59716-0.441556c14.255952 5.897927 25.61025 17.504543 31.22432 31.855114 0.536175 1.293128 1.829304 2.20778 3.280131 2.20778h43.430191a3.469369 3.469369 0 0 0 3.248591-2.20778c5.61407-14.350571 16.968368-25.957187 31.22432-31.855114 13.877476-5.740229 29.615794-5.677149 43.398651-0.03154a18.198417 18.198417 0 0 1 1.419287-5.393292 9.808852 9.808852 0 0 0 0.126159-7.72723 10.02963 10.02963 0 0 0-5.424832-5.298673 18.92383 18.92383 0 0 1-12.016632-17.599162v-20.563896c0-7.82185 4.636338-14.697508 11.890474-17.599162z m-95.565343 22.992453c-46.552623 0-84.431823-37.8792-84.431823-84.463362s37.8792-84.494903 84.431823-84.494903c46.615702 0 84.494903 37.94228 84.494903 84.494903s-37.91074 84.463363-84.494903 84.463362z m247.776019-21.730865a27.124157 27.124157 0 0 1 0.220778-21.13161 1.703145 1.703145 0 0 0-0.346937-1.829304l-14.53981-14.53981c-0.820033-0.820033-1.419287-0.536175-1.860843-0.346936a26.80876 26.80876 0 0 1-35.892198-14.886747 1.640065 1.640065 0 0 0-1.545446-1.040811h-20.563896a1.640065 1.640065 0 0 0-1.545446 1.040811 27.029538 27.029538 0 0 1-35.923738 14.886747c-0.410016-0.157699-1.040811-0.441556-1.860843 0.346936l-14.57135 14.53981a1.734684 1.734684 0 0 0-0.346937 1.860843 26.871839 26.871839 0 0 1-14.855207 35.892199 1.671605 1.671605 0 0 0-1.07235 1.576986v20.563895c0 0.662334 0.441556 1.261589 1.07235 1.545446a26.934919 26.934919 0 0 1 14.855207 35.955278 1.703145 1.703145 0 0 0 0.346937 1.829304l14.57135 14.571349c0.820033 0.820033 1.419287 0.536175 1.860843 0.315397a27.155697 27.155697 0 0 1 21.100071-0.220778 26.966458 26.966458 0 0 1 14.792127 15.107525c0.220778 0.630794 0.883112 1.040811 1.545446 1.04081h20.563896a1.640065 1.640065 0 0 0 1.545446-1.04081 26.997998 26.997998 0 0 1 35.923738-14.886747c0.441556 0.220778 1.040811 0.441556 1.860843-0.315397l14.53981-14.571349a1.640065 1.640065 0 0 0 0.346937-1.829304 27.061077 27.061077 0 0 1 14.886746-35.955278 1.703145 1.703145 0 0 0 1.040811-1.545446v-20.563895a1.734684 1.734684 0 0 0-1.040811-1.576986 27.061077 27.061077 0 0 1-15.107524-14.792128z m-64.277944 66.611883a40.055441 40.055441 0 1 1 0.063079-80.047802 40.055441 40.055441 0 0 1-0.063079 80.047802z" p-id="20156"></path></svg>