<?xml version="1.0" standalone="no"?><!DOCTYPE svg PUBLIC "-//W3C//DTD SVG 1.1//EN" "http://www.w3.org/Graphics/SVG/1.1/DTD/svg11.dtd"><svg t="1620817785435" class="icon" viewBox="0 0 1024 1024" version="1.1" xmlns="http://www.w3.org/2000/svg" p-id="2046" xmlns:xlink="http://www.w3.org/1999/xlink"><defs><style type="text/css"></style></defs><path d="M744.021333 167.765333H280.021333A109.824 109.824 0 0 0 170.666667 278.058667v467.925333a109.824 109.824 0 0 0 109.354666 110.293333h464A109.781333 109.781333 0 0 0 853.333333 745.984V278.058667a109.781333 109.781333 0 0 0-109.312-110.293334z" fill="#1677FF" p-id="2047"></path><path d="M732.714667 600.064c-27.306667-9.216-64-23.338667-104.789334-38.4a558.122667 558.122667 0 0 0 56.96-145.066667H550.4V367.786667h164.821333v-27.264H550.4v-81.493334h-67.328a11.52 11.52 0 0 0-11.818667 11.733334v69.76H304.554667v27.264h166.698666v48.896H333.610667v27.264h266.965333a482.133333 482.133333 0 0 1-38.4 94.762666c-86.613333-28.842667-179.2-52.181333-237.141333-37.802666a136.533333 136.533333 0 0 0-75.093334 42.965333c-64.512 79.146667-18.261333 199.338667 117.973334 199.338667a288.128 288.128 0 0 0 218.24-119.893334c89.6 43.477333 267.178667 118.144 267.178666 118.144v-106.410666a722.218667 722.218667 0 0 1-120.618666-34.986667z m-377.6 97.152c-106.197333 0-137.6-84.352-85.333334-130.517333a133.205333 133.205333 0 0 1 66.816-24.832 354.133333 354.133333 0 0 1 190.421334 51.925333 228.693333 228.693333 0 0 1-171.904 103.424z" fill="#FFFFFF" p-id="2048"></path></svg>
