<?xml version="1.0" standalone="no"?><!DOCTYPE svg PUBLIC "-//W3C//DTD SVG 1.1//EN" "http://www.w3.org/Graphics/SVG/1.1/DTD/svg11.dtd"><svg t="1620911446421" class="icon" viewBox="0 0 1024 1024" version="1.1" xmlns="http://www.w3.org/2000/svg" p-id="11630" xmlns:xlink="http://www.w3.org/1999/xlink" width="128" height="128"><defs><style type="text/css"></style></defs><path d="M512 48A460.96 460.96 0 0 0 183.904 183.904 460.96 460.96 0 0 0 48 512c0 123.936 48.256 240.448 135.904 328.096A460.96 460.96 0 0 0 512 976c123.936 0 240.448-48.256 328.096-135.904A460.96 460.96 0 0 0 976 512c0-123.936-48.256-240.448-135.904-328.096A460.96 460.96 0 0 0 512 48M512 0c282.784 0 512 229.216 512 512s-229.216 512-512 512S0 794.784 0 512 229.216 0 512 0z" fill="#0CBE1E" p-id="11631"></path><path d="M443.648 684.992a12.864 12.864 0 0 1-1.152-0.512l-4.992-2.432-5.408 1.184a9.76 9.76 0 0 1-1.984 0.16 22.272 22.272 0 0 1-13.632-5.184l-142.72-142.688c-2.784-2.816-2.56-7.68 0.544-10.816a8.224 8.224 0 0 1 5.856-2.496c1.344 0 3.328 0.352 4.992 2.016l136.992 137.024 11.328 11.328 11.296-11.328 214.08-214.08 110.784-110.784c1.6 0.64 4.16 2.016 6.72 4.608 2.56 2.56 3.968 5.088 4.608 6.72l-337.28 337.28z" fill="#8A8A8A" p-id="11632"></path><path d="M445.152 701.376a22.56 22.56 0 0 1-9.696-2.528 25.536 25.536 0 0 1-5.344 0.544c-9.088 0-19.264-4.16-24.96-9.92L262.464 546.88a23.68 23.68 0 0 1 0.544-33.44 24.224 24.224 0 0 1 17.152-7.2c5.952 0 11.84 2.24 16.288 6.688l137.024 137.056 214.08-214.08 113.088-113.12a10.304 10.304 0 0 1 7.456-2.752c5.92 0 13.344 3.456 19.584 9.664 9.344 9.376 12.48 21.472 6.912 27.04L452.64 698.624a10.24 10.24 0 0 1-7.488 2.752z" fill="#0CBE1E" p-id="11633"></path></svg>